<svg xmlns="http://www.w3.org/2000/svg" version="1.1" xmlns:xlink="http://www.w3.org/1999/xlink" width="1000" height="1000"><g clip-path="url(#SvgjsClipPath1070)"><rect width="1000" height="1000" fill="#ffffff"></rect><g transform="matrix(3.90625,0,0,3.90625,0,0)"><svg xmlns="http://www.w3.org/2000/svg" version="1.1" xmlns:xlink="http://www.w3.org/1999/xlink" width="256" height="256"><svg xmlns="http://www.w3.org/2000/svg" version="1.2" baseProfile="tiny-ps" width="256" height="256" viewBox="0 0 256 256">
  <title>OFOQ Educational Platform Logomark</title>
  <path d="M101 181C132 151 171 166 182 181L198 157C166 130 119 131 85 158L101 181Z" fill="#51C09D"></path>
  <path d="M135 85V57C52 65 38 157 81 195H31V224H135V195C60 178 82 92 135 85Z" fill="#32157F"></path>
  <path d="M151 85V57C254 76 259 213 151 224V195C220 182 214 97 151 85Z" fill="#32157F"></path>
  <circle cx="143" cy="118" r="13" fill="#51C09D"></circle>
  <circle cx="121" cy="29" r="13" fill="#32157F"></circle>
  <circle cx="166" cy="29" r="13" fill="#32157F"></circle>
</svg></svg></g></g><defs><clipPath id="SvgjsClipPath1070"><rect width="1000" height="1000" x="0" y="0" rx="200" ry="200"></rect></clipPath></defs></svg>