<svg width="123" height="30" viewBox="0 0 123 30" fill="none" xmlns="http://www.w3.org/2000/svg">
<g filter="url(#filter0_dd_2020_6781)">
<path d="M11.4296 21.4727C14.8847 18.1086 19.2149 19.9195 20.3894 21.378L22.2457 18.6882C18.6467 15.468 13.4943 15.5438 9.66797 18.6124L11.4296 21.4727Z" fill="#51C09D"/>
<path d="M15.18 10.1452V6.86816C5.9929 7.72057 4.30702 18.442 8.8532 22.7987H3V26H15.18V22.7419C6.88319 20.6961 8.89108 10.8461 15.18 10.1452Z" fill="#32157F"/>
<path d="M16.8658 10.1452V6.86816C28.1934 8.32673 28.6859 24.1436 16.8658 26V22.7419C24.4428 20.9613 23.7419 11.2628 16.8658 10.1452Z" fill="#32157F"/>
<circle cx="15.9756" cy="13.4795" r="1.47751" fill="#51C09D"/>
<circle cx="13.5127" cy="3.47751" r="1.47751" fill="#32157F"/>
<circle cx="18.4004" cy="3.47751" r="1.47751" fill="#32157F"/>
</g>
<ellipse cx="43.8172" cy="7.86035" rx="1.82009" ry="1.76953" fill="#321581"/>
<ellipse cx="47.659" cy="7.86035" rx="1.82009" ry="1.76953" fill="#32157F"/>
<ellipse cx="109.845" cy="7.75977" rx="1.82009" ry="1.76953" fill="#32157F"/>
<path d="M117.833 4.87779H118.541C118.389 4.2711 117.985 2.80491 119.35 2.19821C120.442 1.71285 121.288 2.23192 121.575 2.55212V4.0183C120.361 3.00714 119.887 3.63581 119.755 3.96774C119.653 4.22053 119.839 4.6587 120.007 4.87779H122.384L121.575 6.39453H117.024L117.833 4.87779Z" fill="#32157F"/>
<path d="M118.086 9.47857L121.423 7.65848V21.5114H118.086V9.47857Z" fill="#32157F"/>
<path fill-rule="evenodd" clip-rule="evenodd" d="M36.4352 16.506L39.5193 15.8487C38.5418 17.989 37.7396 22.3505 42.3505 22.6741C45.2323 22.6741 45.9907 22.2191 46.4963 21.4607C45.9907 21.4607 41.8955 20.6012 41.491 17.1633C41.0866 13.7253 42.5022 11.1974 45.1312 10.8941C47.7602 10.5907 49.3781 11.3491 50.3387 13.9781C50.5409 16.0813 50.4229 17.7531 50.3387 18.3261H105.7C104.908 16.3038 104.638 11.9558 109.037 10.8435C110.503 10.5401 113.637 11.248 114.143 13.9781C114.183 14.1803 114.194 14.6691 114.194 14.8881V17.416C114.092 18.8148 113.142 21.6023 110.149 21.5618C107.156 21.5214 69.1126 21.4438 50.3387 21.4607C49.5803 23.8875 46.1424 27.9726 38.4575 24.8986C36.0813 23.7864 35.2724 20.3484 35.6263 18.5283C35.778 17.9722 36.1521 16.7891 36.4352 16.506ZM110.857 14.6353V17.4666C110.806 17.6857 110.624 18.1643 110.301 18.3261C109.896 18.5283 108.531 18.1825 108.531 16.7588C108.531 16.5323 108.522 16.3208 108.514 16.1226C108.473 15.17 108.445 14.5221 109.492 13.9781C109.862 13.8433 110.654 13.786 110.857 14.6353ZM47.0524 14.6859V18.225C46.3109 18.1913 44.9636 17.826 44.7773 16.7082C44.5751 15.4948 44.7268 14.2814 45.6368 14.0286C46.5468 13.7759 46.9007 14.1803 47.0524 14.6859Z" fill="#32157F"/>
<defs>
<filter id="filter0_dd_2020_6781" x="-2" y="-2" width="32.5469" height="34" filterUnits="userSpaceOnUse" color-interpolation-filters="sRGB">
<feFlood flood-opacity="0" result="BackgroundImageFix"/>
<feColorMatrix in="SourceAlpha" type="matrix" values="0 0 0 0 0 0 0 0 0 0 0 0 0 0 0 0 0 0 127 0" result="hardAlpha"/>
<feOffset dy="1"/>
<feGaussianBlur stdDeviation="1"/>
<feColorMatrix type="matrix" values="0 0 0 0 0.0627451 0 0 0 0 0.0941176 0 0 0 0 0.156863 0 0 0 0.06 0"/>
<feBlend mode="normal" in2="BackgroundImageFix" result="effect1_dropShadow_2020_6781"/>
<feColorMatrix in="SourceAlpha" type="matrix" values="0 0 0 0 0 0 0 0 0 0 0 0 0 0 0 0 0 0 127 0" result="hardAlpha"/>
<feOffset dy="1"/>
<feGaussianBlur stdDeviation="1.5"/>
<feColorMatrix type="matrix" values="0 0 0 0 0.0627451 0 0 0 0 0.0941176 0 0 0 0 0.156863 0 0 0 0.1 0"/>
<feBlend mode="normal" in2="effect1_dropShadow_2020_6781" result="effect2_dropShadow_2020_6781"/>
<feBlend mode="normal" in="SourceGraphic" in2="effect2_dropShadow_2020_6781" result="shape"/>
</filter>
</defs>
</svg>
