<svg width="31" height="33" viewBox="0 0 31 33" fill="none" xmlns="http://www.w3.org/2000/svg">
<g filter="url(#filter0_dd_2020_5507)">
<path d="M12.2433 23.3529C16.032 19.6639 20.7804 21.6496 22.0682 23.249L24.1038 20.2995C20.1572 16.7683 14.5074 16.8514 10.3115 20.2164L12.2433 23.3529Z" fill="#51C09D"/>
<path d="M16.3561 10.9314V7.33789C6.28189 8.27261 4.43323 20.0293 9.41839 24.8067H3V28.3171H16.3561V24.7444C7.25815 22.5011 9.45993 11.6999 16.3561 10.9314Z" fill="#32157F"/>
<path d="M18.2047 10.9314V7.33789C30.6261 8.93729 31.1661 26.2815 18.2047 28.3171V24.7444C26.5133 22.7919 25.7448 12.1569 18.2047 10.9314Z" fill="#32157F"/>
<circle cx="17.2286" cy="14.5879" r="1.62018" fill="#51C09D"/>
<circle cx="14.5284" cy="3.62018" r="1.62018" fill="#32157F"/>
<circle cx="19.8868" cy="3.62018" r="1.62018" fill="#32157F"/>
</g>
<defs>
<filter id="filter0_dd_2020_5507" x="-2" y="-2" width="34.7246" height="36.3174" filterUnits="userSpaceOnUse" color-interpolation-filters="sRGB">
<feFlood flood-opacity="0" result="BackgroundImageFix"/>
<feColorMatrix in="SourceAlpha" type="matrix" values="0 0 0 0 0 0 0 0 0 0 0 0 0 0 0 0 0 0 127 0" result="hardAlpha"/>
<feOffset dy="1"/>
<feGaussianBlur stdDeviation="1"/>
<feColorMatrix type="matrix" values="0 0 0 0 0.0627451 0 0 0 0 0.0941176 0 0 0 0 0.156863 0 0 0 0.06 0"/>
<feBlend mode="normal" in2="BackgroundImageFix" result="effect1_dropShadow_2020_5507"/>
<feColorMatrix in="SourceAlpha" type="matrix" values="0 0 0 0 0 0 0 0 0 0 0 0 0 0 0 0 0 0 127 0" result="hardAlpha"/>
<feOffset dy="1"/>
<feGaussianBlur stdDeviation="1.5"/>
<feColorMatrix type="matrix" values="0 0 0 0 0.0627451 0 0 0 0 0.0941176 0 0 0 0 0.156863 0 0 0 0.1 0"/>
<feBlend mode="normal" in2="effect1_dropShadow_2020_5507" result="effect2_dropShadow_2020_5507"/>
<feBlend mode="normal" in="SourceGraphic" in2="effect2_dropShadow_2020_5507" result="shape"/>
</filter>
</defs>
</svg>
